<svg xmlns="http://www.w3.org/2000/svg" width="800" height="420" viewBox="0 0 800 420">
  <defs>
    <linearGradient id="bg" x1="0%" y1="0%" x2="100%" y2="100%">
      <stop offset="0%" style="stop-color:#050d1a"/>
      <stop offset="100%" style="stop-color:#0a1628"/>
    </linearGradient>
    <filter id="bl"><feGaussianBlur stdDeviation="40"/></filter>
  </defs>
  <rect width="800" height="420" fill="url(#bg)"/>
  <circle cx="200" cy="180" r="180" fill="#00b8cc" opacity="0.07" filter="url(#bl)"/>
  <circle cx="620" cy="280" r="150" fill="#a855f7" opacity="0.07" filter="url(#bl)"/>
  <g stroke="#00b8cc" stroke-width="0.4" opacity="0.1"><line x1="0" y1="84" x2="800" y2="84"/><line x1="0" y1="168" x2="800" y2="168"/><line x1="0" y1="252" x2="800" y2="252"/><line x1="0" y1="336" x2="800" y2="336"/><line x1="160" y1="0" x2="160" y2="420"/><line x1="320" y1="0" x2="320" y2="420"/><line x1="480" y1="0" x2="480" y2="420"/><line x1="640" y1="0" x2="640" y2="420"/></g>
  
  <circle cx="400" cy="200" r="30" fill="#00b8cc" opacity="0.15"/>
  <circle cx="400" cy="200" r="30" fill="none" stroke="#00b8cc" stroke-width="2" opacity="0.8"/>
  <circle cx="400" cy="200" r="12" fill="#00b8cc" opacity="0.9"/>
  <line x1="400" y1="200" x2="240" y2="120" stroke="#00b8cc" stroke-width="1.5" opacity="0.3" stroke-dasharray="5 3"/>
  <circle cx="240" cy="120" r="18" fill="#00b8cc" opacity="0.1"/>
  <circle cx="240" cy="120" r="18" fill="none" stroke="#00b8cc" stroke-width="1.5" opacity="0.5"/>
  <circle cx="240" cy="120" r="7" fill="#00b8cc" opacity="0.7"/>
  <line x1="400" y1="200" x2="560" y2="120" stroke="#00b8cc" stroke-width="1.5" opacity="0.3" stroke-dasharray="5 3"/>
  <circle cx="560" cy="120" r="18" fill="#00b8cc" opacity="0.1"/>
  <circle cx="560" cy="120" r="18" fill="none" stroke="#00b8cc" stroke-width="1.5" opacity="0.5"/>
  <circle cx="560" cy="120" r="7" fill="#00b8cc" opacity="0.7"/>
  <line x1="400" y1="200" x2="240" y2="280" stroke="#a855f7" stroke-width="1.5" opacity="0.3" stroke-dasharray="5 3"/>
  <circle cx="240" cy="280" r="18" fill="#a855f7" opacity="0.1"/>
  <circle cx="240" cy="280" r="18" fill="none" stroke="#a855f7" stroke-width="1.5" opacity="0.45"/>
  <circle cx="240" cy="280" r="7" fill="#a855f7" opacity="0.7"/>
  <line x1="400" y1="200" x2="560" y2="280" stroke="#a855f7" stroke-width="1.5" opacity="0.3" stroke-dasharray="5 3"/>
  <circle cx="560" cy="280" r="18" fill="#a855f7" opacity="0.1"/>
  <circle cx="560" cy="280" r="18" fill="none" stroke="#a855f7" stroke-width="1.5" opacity="0.45"/>
  <circle cx="560" cy="280" r="7" fill="#a855f7" opacity="0.7"/>
  <text x="400" y="390" font-family="'Space Grotesk',sans-serif" font-size="11" fill="#00b8cc" opacity="0.45" text-anchor="middle" letter-spacing="3">AGENTE DE VOZ IA PARA NEGOCIOS</text>
</svg>