<svg xmlns="http://www.w3.org/2000/svg" width="800" height="420" viewBox="0 0 800 420">
  <defs>
    <linearGradient id="bg" x1="0%" y1="0%" x2="100%" y2="100%">
      <stop offset="0%" style="stop-color:#050d1a"/>
      <stop offset="100%" style="stop-color:#0a1628"/>
    </linearGradient>
    <filter id="bl"><feGaussianBlur stdDeviation="40"/></filter>
  </defs>
  <rect width="800" height="420" fill="url(#bg)"/>
  <circle cx="200" cy="180" r="180" fill="#6c8fff" opacity="0.07" filter="url(#bl)"/>
  <circle cx="620" cy="280" r="150" fill="#00b8cc" opacity="0.07" filter="url(#bl)"/>
  <g stroke="#6c8fff" stroke-width="0.4" opacity="0.1"><line x1="0" y1="84" x2="800" y2="84"/><line x1="0" y1="168" x2="800" y2="168"/><line x1="0" y1="252" x2="800" y2="252"/><line x1="0" y1="336" x2="800" y2="336"/><line x1="160" y1="0" x2="160" y2="420"/><line x1="320" y1="0" x2="320" y2="420"/><line x1="480" y1="0" x2="480" y2="420"/><line x1="640" y1="0" x2="640" y2="420"/></g>
  
  <rect x="220" y="260" width="60" height="80" rx="6" fill="#6c8fff" opacity="0.7"/>
  <rect x="300" y="200" width="60" height="140" rx="6" fill="#6c8fff" opacity="0.55"/>
  <rect x="380" y="150" width="60" height="190" rx="6" fill="#00b8cc" opacity="0.7"/>
  <rect x="460" y="220" width="60" height="120" rx="6" fill="#6c8fff" opacity="0.5"/>
  <rect x="540" y="180" width="60" height="160" rx="6" fill="#00b8cc" opacity="0.55"/>
  <line x1="200" y1="350" x2="620" y2="350" stroke="#6c8fff" stroke-width="1.5" opacity="0.3"/>
  <text x="400" y="390" font-family="'Space Grotesk',sans-serif" font-size="11" fill="#6c8fff" opacity="0.45" text-anchor="middle" letter-spacing="3">TRANSFORMACIÓN DIGITAL PYME ESPAÑA</text>
</svg>