<svg xmlns="http://www.w3.org/2000/svg" width="800" height="420" viewBox="0 0 800 420">
  <defs>
    <linearGradient id="bg" x1="0%" y1="0%" x2="100%" y2="100%">
      <stop offset="0%" style="stop-color:#050d1a"/>
      <stop offset="100%" style="stop-color:#0a1628"/>
    </linearGradient>
    <filter id="bl"><feGaussianBlur stdDeviation="40"/></filter>
  </defs>
  <rect width="800" height="420" fill="url(#bg)"/>
  <circle cx="200" cy="180" r="180" fill="#00b8cc" opacity="0.07" filter="url(#bl)"/>
  <circle cx="620" cy="280" r="150" fill="#6c8fff" opacity="0.07" filter="url(#bl)"/>
  <g stroke="#00b8cc" stroke-width="0.4" opacity="0.1"><line x1="0" y1="84" x2="800" y2="84"/><line x1="0" y1="168" x2="800" y2="168"/><line x1="0" y1="252" x2="800" y2="252"/><line x1="0" y1="336" x2="800" y2="336"/><line x1="160" y1="0" x2="160" y2="420"/><line x1="320" y1="0" x2="320" y2="420"/><line x1="480" y1="0" x2="480" y2="420"/><line x1="640" y1="0" x2="640" y2="420"/></g>
  
  <rect x="200" y="120" width="200" height="80" rx="16" fill="#00b8cc" opacity="0.1"/>
  <rect x="200" y="120" width="200" height="80" rx="16" fill="none" stroke="#00b8cc" stroke-width="1.5" opacity="0.5"/>
  <polygon points="210,200 230,200 210,220" fill="#00b8cc" opacity="0.5"/>
  <circle cx="260" cy="160" r="7" fill="#00b8cc" opacity="0.8"/>
  <circle cx="300" cy="160" r="7" fill="#00b8cc" opacity="0.6"/>
  <circle cx="340" cy="160" r="7" fill="#00b8cc" opacity="0.4"/>
  <rect x="400" y="220" width="200" height="80" rx="16" fill="#6c8fff" opacity="0.1"/>
  <rect x="400" y="220" width="200" height="80" rx="16" fill="none" stroke="#6c8fff" stroke-width="1.5" opacity="0.4"/>
  <polygon points="590,300 610,300 590,320" fill="#6c8fff" opacity="0.4"/>
  <rect x="420" y="248" width="120" height="8" rx="4" fill="#6c8fff" opacity="0.5"/>
  <rect x="420" y="266" width="80" height="8" rx="4" fill="#6c8fff" opacity="0.35"/>
  <text x="400" y="390" font-family="'Space Grotesk',sans-serif" font-size="11" fill="#00b8cc" opacity="0.45" text-anchor="middle" letter-spacing="3">CÓMO AHORRAR TIEMPO Y DINERO AUTOMATIZAN</text>
</svg>